<svg xmlns="http://www.w3.org/2000/svg" version="1.1" xmlns:xlink="http://www.w3.org/1999/xlink" xmlns:svgjs="http://svgjs.com/svgjs" width="1000" height="1000"><rect width="1000" height="1000" rx="150" ry="150" fill="#71aefe"></rect><g transform="matrix(1,0,0,1,0,0)"><svg xmlns="http://www.w3.org/2000/svg" version="1.1" xmlns:xlink="http://www.w3.org/1999/xlink" xmlns:svgjs="http://svgjs.com/svgjs" width="800px" height="800px"><svg fill="#000000" width="800px" height="800px" viewBox="0 0 200 200" data-name="Layer 1" id="Layer_1" xmlns="http://www.w3.org/2000/svg"><title></title><path d="M75,57.5h95a10,10,0,0,0,0-20H75a10,10,0,0,0,0,20Zm-35-20H30a10,10,0,0,0,0,20H40a10,10,0,0,0,0-20Zm35,70h75a10,10,0,0,0,0-20H75a10,10,0,0,0,0,20Zm-35-20H30a10,10,0,0,0,0,20H40a10,10,0,0,0,0-20Zm130,55H75a10,10,0,0,0,0,20h95a10,10,0,0,0,0-20Zm-130,0H30a10,10,0,0,0,0,20H40a10,10,0,0,0,0-20Z"></path></svg></svg></g></svg>